<?xml version="1.0" encoding="UTF-8"?>
<svg version="1.1" xmlns="http://www.w3.org/2000/svg" width="548" height="457">
<path d="M0 0 C3.51289408 3.07948507 6.90004103 6.27827116 10.26367188 9.52050781 C10.96621094 10.17148438 11.66875 10.82246094 12.39257812 11.49316406 C40.19989462 37.95224703 58.83359118 79.63648725 60.40405273 117.94482422 C60.86333973 136.47894423 60.52041492 154.37076281 56.26367188 172.52050781 C56.08175293 173.30119629 55.89983398 174.08188477 55.71240234 174.88623047 C52.9308661 186.32806365 48.38432859 196.94687322 43.26367188 207.52050781 C42.95059082 208.1726123 42.63750977 208.8247168 42.31494141 209.49658203 C34.76587075 225.00634552 24.73063825 238.79314133 12.66455078 251.08886719 C11.34148703 252.44098393 10.04199664 253.81605178 8.74414062 255.19238281 C-19.8669127 284.95897141 -62.76587809 302.69336777 -103.84570312 303.72363281 C-149.9995809 304.27118595 -193.53363098 290.42818827 -227.62304688 258.45800781 C-229.13336175 257.07331987 -230.70438094 255.75370422 -232.31054688 254.48144531 C-235.94550831 251.54303848 -238.76188113 248.11229286 -241.73632812 244.52050781 C-242.97769531 243.03550781 -242.97769531 243.03550781 -244.24414062 241.52050781 C-274.11320968 205.09310093 -287.28241939 159.47238313 -282.71850586 112.71411133 C-277.84110989 67.69291499 -255.31917163 27.01328717 -220.7578125 -2.14892578 C-216.57383822 -5.49631889 -212.2205821 -8.54997153 -207.73632812 -11.47949219 C-207.14174805 -11.87040039 -206.54716797 -12.26130859 -205.93457031 -12.6640625 C-142.56686492 -53.75164142 -57.70810433 -49.17197867 0 0 Z M-219.94238281 36.50341797 C-235.40850807 53.89333725 -245.87245265 75.081411 -251.73632812 97.52050781 C-252.03667969 98.64070313 -252.33703125 99.76089844 -252.64648438 100.91503906 C-261.31868525 140.08111836 -251.54546237 179.35296608 -230.67016602 212.77783203 C-225.70642605 220.4136254 -219.55834907 226.71560039 -213.11914062 233.12597656 C-211.73807354 234.51383578 -210.3743904 235.92041103 -209.06054688 237.37207031 C-187.47560798 260.76004706 -151.48774913 274.04036111 -120.27978516 275.64697266 C-79.76632591 276.87370614 -41.87680704 264.0319113 -12.09960938 236.16503906 C14.07251444 211.01009434 31.61101253 175.91851281 32.46679688 139.24707031 C32.61704889 125.72819283 32.52067527 112.68718007 29.26367188 99.52050781 C29.0703125 98.73305176 28.87695312 97.9455957 28.67773438 97.13427734 C19.09741586 59.51526428 -4.76342933 27.1660404 -38.17382812 7.27050781 C-98.60049236 -27.7562228 -173.01579494 -14.2674384 -219.94238281 36.50341797 Z " fill="#160544" transform="translate(388.736328125,99.4794921875)"/>
<path d="M0 0 C1.35163115 -0.0054354 2.70325636 -0.01256593 4.05487061 -0.02124023 C7.68682952 -0.03929818 11.31832824 -0.03248264 14.95029402 -0.01972389 C18.7671367 -0.00951676 22.58394294 -0.01900963 26.40078735 -0.02526855 C32.80079146 -0.03251742 39.20061007 -0.02302473 45.60058594 -0.00390625 C52.98989563 0.01791327 60.37876465 0.01076352 67.7680639 -0.01121187 C74.13271643 -0.02937834 80.49723657 -0.03191983 86.86190665 -0.0214572 C90.65478025 -0.01523623 94.44744673 -0.01434903 98.24030685 -0.02760315 C101.8012199 -0.03918142 105.36156484 -0.03110087 108.92241669 -0.00802612 C110.84629034 -0.00024258 112.77021224 -0.0120741 114.69406128 -0.02453613 C122.55040792 0.05238184 126.13769572 0.86117697 131.87744141 6.20507812 C133.74921279 9.85010661 134.17837766 13.44096263 134.06494141 17.51757812 C132.24019695 22.89043679 129.1169207 25.99158848 124.06494141 28.51757812 C122.30467863 28.61634214 120.54067421 28.65100377 118.77764893 28.65560913 C117.09528641 28.66378914 117.09528641 28.66378914 115.37893677 28.6721344 C114.14255463 28.67317673 112.90617249 28.67421906 111.63232422 28.67529297 C109.64039193 28.68309213 107.64845966 28.69089535 105.656528 28.69885087 C103.5112264 28.70657251 101.36592909 28.71195072 99.2206192 28.71680832 C94.74931402 28.72748231 90.27808468 28.74772639 85.80682373 28.76992798 C73.09081503 28.83186967 60.37481026 28.88584103 47.65869141 28.91894531 C40.63857032 28.93730139 33.61857576 28.96625116 26.5985477 29.00695002 C22.88381458 29.02800653 19.16924083 29.04347532 15.45444489 29.04575729 C11.30783167 29.04830743 7.16166097 29.0737875 3.01513672 29.10107422 C1.17270889 29.09656502 1.17270889 29.09656502 -0.7069397 29.09196472 C-8.82230464 29.02724807 -8.82230464 29.02724807 -15.93505859 32.51757812 C-20.25660658 38.0360449 -19.34514416 45.0095552 -19.30395508 51.6796875 C-19.30642525 53.02057706 -19.31026585 54.36146468 -19.31536865 55.7023468 C-19.32368582 58.58176624 -19.32291698 61.46098777 -19.31518364 64.34040833 C-19.30357226 68.89609885 -19.31578644 73.45153629 -19.33180237 78.00720215 C-19.36794624 89.32056163 -19.37422636 100.63391467 -19.3717041 111.94732666 C-19.3699922 120.74482441 -19.37712803 129.54211463 -19.41168267 138.33955431 C-19.42845857 142.86572729 -19.42669834 147.39139357 -19.41085994 151.91756439 C-19.40505546 154.73570191 -19.4158161 157.55360005 -19.43110657 160.37169456 C-19.43659685 162.29564129 -19.42223757 164.21961279 -19.40724182 166.14350891 C-19.47242348 173.98597241 -20.22219464 177.67211189 -25.68505859 183.33007812 C-30.55904473 185.9024597 -34.56663626 185.92810482 -39.68505859 184.39257812 C-43.67441706 182.09102516 -45.88702639 179.61364253 -47.93505859 175.51757812 C-48.03708113 173.68220184 -48.07454588 171.84310692 -48.08222961 170.00491333 C-48.08938492 168.8331102 -48.09654022 167.66130707 -48.10391235 166.45399475 C-48.10660126 165.16158371 -48.10929016 163.86917267 -48.11206055 162.53759766 C-48.11832487 161.16762621 -48.12497165 159.79765647 -48.13197327 158.4276886 C-48.15303663 153.91860135 -48.16338432 149.40951371 -48.17333984 144.90039062 C-48.17738789 143.34606788 -48.18150483 141.79174532 -48.18568993 140.23742294 C-48.20475414 132.92782484 -48.21897718 125.61823686 -48.2273019 118.30861866 C-48.23705048 109.88846408 -48.26330216 101.46857405 -48.30380279 93.04851258 C-48.33406335 86.53198825 -48.34878053 80.01553925 -48.35208291 73.49894607 C-48.354424 69.61178919 -48.36325915 65.72491449 -48.38854408 61.8378334 C-48.41200156 58.17204849 -48.41598811 54.50672788 -48.4057827 50.84088707 C-48.40505915 48.87269966 -48.42403007 46.90453491 -48.44384766 44.93644714 C-48.36814177 31.85327324 -44.81278608 21.25543145 -35.93505859 11.51757812 C-25.55092198 2.11241736 -13.61446539 -0.08905511 0 0 Z " fill="#8E889F" transform="translate(49.93505859375,1.482421875)"/>
<path d="M0 0 C3.79343452 2.13680805 6.40913568 4.93782238 8 9 C8.25053978 11.61501122 8.25053978 11.61501122 8.2515564 14.64169312 C8.25693924 15.79125992 8.26232208 16.94082672 8.26786804 18.12522888 C8.26168205 20.01109459 8.26168205 20.01109459 8.25537109 21.93505859 C8.25812184 23.27565219 8.26180225 24.61624415 8.26634216 25.95683289 C8.27444881 28.84170102 8.27662397 31.72649167 8.27439499 34.61137009 C8.27156027 39.17527337 8.28591992 43.73902205 8.30337524 48.30288696 C8.35038653 61.28002604 8.37434149 74.25715455 8.38085938 87.234375 C8.38461194 94.40321185 8.40265671 101.57187368 8.43595374 108.74063551 C8.45615408 113.27514231 8.45854495 117.8091973 8.44767356 122.34373069 C8.44506272 125.16844034 8.4590884 127.99288804 8.47775459 130.81752968 C8.48559629 132.74624985 8.47365242 134.67501888 8.46107483 136.60371399 C8.46743868 145.07691211 8.46743868 145.07691211 13 152 C18.56848154 156.21797446 25.22984251 155.41829494 31.90258789 155.38476562 C33.89777025 155.39301264 35.89295261 155.40126045 37.88813484 155.40953827 C40.02472995 155.41552515 42.16120808 155.41415923 44.29780769 155.41069031 C48.75661793 155.40386555 53.21517186 155.41977347 57.67393494 155.43908691 C67.94145979 155.4801107 78.20897719 155.49148668 88.47657013 155.50261688 C97.89216786 155.51312779 107.30764203 155.5299114 116.72316355 155.57071257 C121.15419652 155.58905779 125.58493518 155.59296546 130.01599705 155.58577728 C132.10847441 155.58462153 134.20080077 155.59026072 136.29325867 155.59895325 C138.84239568 155.60950424 141.39160809 155.60939113 143.94073486 155.59660339 C145.06643387 155.60480606 146.19213287 155.61300873 147.35194397 155.62145996 C148.81558427 155.62252872 148.81558427 155.62252872 150.30879307 155.62361908 C153.53901928 156.07538498 155.37974429 157.07960823 158 159 C161.42266107 163.81022636 162.7682215 166.96397393 162 173 C160.54440548 176.60432929 159.10834921 179.61821795 156 182 C153.33459473 182.38590336 153.33459473 182.38590336 150.05664062 182.40113831 C148.81470444 182.41393326 147.57276825 182.42672821 146.29319763 182.43991089 C144.9142148 182.43886228 143.5352322 182.43747765 142.15625 182.43579102 C140.70568563 182.44476677 139.25512843 182.45497459 137.80458069 182.46632385 C133.8598925 182.49286203 129.91539947 182.49985932 125.97063065 182.50177121 C123.50325745 182.50390344 121.03593387 182.51030802 118.568573 182.51826286 C109.95177056 182.54603958 101.33510744 182.55826681 92.71826172 182.5559082 C84.70259051 182.55411011 76.68752781 182.58567649 68.67201042 182.63313919 C61.78093573 182.67248022 54.89005878 182.6884549 47.99887276 182.68654197 C43.88754033 182.6857797 39.77674736 182.69418072 35.66552734 182.72607613 C31.79105518 182.75531094 27.91763043 182.75522971 24.04311943 182.73352623 C22.62867118 182.73041105 21.21415561 182.73734389 19.79982185 182.7556076 C8.84791998 182.88775606 1.78298057 180.44359815 -6.8671875 173.796875 C-17.82100661 162.62994657 -20.30126273 151.56367214 -20.29052734 136.35717773 C-20.29651864 134.97673176 -20.30332557 133.59628912 -20.31088257 132.21585083 C-20.32848229 128.48249239 -20.33323521 124.74922573 -20.33451414 121.0158298 C-20.33593899 118.68115274 -20.34021475 116.34649878 -20.34550858 114.01182747 C-20.36398436 105.86114146 -20.3721817 97.71052071 -20.37060547 89.55981445 C-20.36940265 81.97012381 -20.39053854 74.38071688 -20.4220928 66.79109806 C-20.44825491 60.26521357 -20.45897289 53.73942182 -20.45769465 47.2134853 C-20.45718527 43.31990471 -20.46285568 39.42657682 -20.48405075 35.53304863 C-20.50343394 31.87293894 -20.50355758 28.21332321 -20.48901749 24.55319595 C-20.48593479 22.57437494 -20.50260262 20.59555386 -20.51989746 18.61680603 C-20.44331682 7.80358313 -20.44331682 7.80358313 -16 3 C-10.98489071 -1.40721725 -6.28010181 -1.5753839 0 0 Z " fill="#8E899F" transform="translate(22,275)"/>
<path d="M0 0 C1.14656067 -0.0071553 2.29312134 -0.01431061 3.47442627 -0.02168274 C4.7387851 -0.02437164 6.00314392 -0.02706055 7.30581665 -0.02983093 C8.64623186 -0.03609536 9.98664532 -0.04274214 11.32705688 -0.04974365 C15.73874702 -0.07080629 20.15043755 -0.08115483 24.56216431 -0.09111023 C26.08305504 -0.09515835 27.6039456 -0.09927528 29.12483597 -0.10346031 C36.27745682 -0.12252459 43.43006733 -0.13674745 50.58270872 -0.14507228 C58.82118432 -0.15482004 67.05938948 -0.18106949 75.2977699 -0.22157317 C81.67416805 -0.25183792 88.05048921 -0.26655132 94.42695773 -0.26985329 C98.23028024 -0.27219397 102.03331429 -0.28102351 105.8365593 -0.30631447 C109.4235527 -0.32977927 113.01007161 -0.33375567 116.59712219 -0.32355309 C118.52237037 -0.32282986 120.44759543 -0.34179575 122.3727417 -0.36161804 C135.32732002 -0.28504555 145.99170153 3.30822088 155.60122681 12.14717102 C161.17451675 18.73287515 164.83514157 24.72362409 164.8821106 33.48530579 C164.89353088 34.76390472 164.90495117 36.04250366 164.91671753 37.35984802 C164.91920789 38.76942405 164.92145815 40.17900051 164.92349243 41.58857727 C164.93275484 43.07872506 164.94280498 44.56886814 164.95358276 46.05900574 C164.97976822 50.10023707 164.99270719 54.14140206 165.00160408 58.18270493 C165.0074729 60.70798887 165.01568367 63.23325481 165.02461243 65.75852966 C165.05193972 73.66130836 165.07128666 81.56404574 165.07901621 89.4668684 C165.08798635 98.58733018 165.12313168 107.70719378 165.1810174 116.82747364 C165.22422983 123.88068528 165.24442343 130.93372841 165.24709845 137.98707104 C165.24919521 142.19880381 165.26102353 146.40997342 165.29673767 150.62156677 C165.32966643 154.58137108 165.33402838 158.54018778 165.31645966 162.50008011 C165.31491729 163.95253773 165.32362667 165.40504812 165.34337616 166.85737228 C165.48371425 177.82075705 165.48371425 177.82075705 163.29119873 181.11619568 C159.42595882 184.44853744 155.56783711 185.4737953 150.60122681 185.14717102 C145.37129733 183.57819218 142.6245576 181.68216721 139.60122681 177.14717102 C138.30182374 174.54836489 138.47063259 172.65730685 138.4631958 169.74598694 C138.45774246 168.59916946 138.45228912 167.45235199 138.44667053 166.27078247 C138.4456282 165.00634811 138.44458588 163.74191376 138.44351196 162.43916321 C138.43884449 161.09886508 138.43370104 159.75856854 138.42811584 158.41827393 C138.41682673 155.52793781 138.4083964 152.63761206 138.40199661 149.74726105 C138.39132337 145.17514192 138.37107953 140.60309699 138.34887695 136.03102112 C138.2869326 123.02826848 138.23296197 110.02551968 138.19985962 97.0226593 C138.18150483 89.84432668 138.15255671 82.66611781 138.11185491 75.48787618 C138.09079636 71.68930672 138.07532932 67.89089317 138.07304764 64.09226227 C138.07089755 60.51677646 138.0549918 56.94161506 138.02865791 53.3662281 C138.0180595 51.43273896 138.02221375 49.49918648 138.02684021 47.56567383 C138.1160416 39.34663231 138.1160416 39.34663231 134.60122681 32.14717102 C129.11683246 27.88333828 122.33199524 28.73647247 115.71450806 28.77827454 C113.72176605 28.77249305 111.72902405 28.76670887 109.73628235 28.76082313 C107.60214 28.75734606 105.46812044 28.76118357 103.33398438 28.76704597 C98.8791066 28.77865926 94.42448757 28.76644161 89.96963501 28.75042725 C78.90670311 28.7142866 67.84377783 28.70800316 56.78079224 28.71052551 C48.17782154 28.71223752 39.57506308 28.70509882 30.97215176 28.67054695 C26.54632959 28.65377326 22.12102563 28.6555293 17.69520569 28.67136967 C14.29270391 28.67853721 10.89042224 28.65992617 7.48794556 28.64546204 C5.654944 28.66007729 5.654944 28.66007729 3.78491211 28.67498779 C-3.99057138 28.60891546 -7.52684543 27.75206929 -13.21127319 22.45967102 C-15.08304458 18.81464253 -15.51220945 15.22378652 -15.39877319 11.14717102 C-12.83447221 3.59672925 -7.72760764 0.03301619 0 0 Z " fill="#8E889F" transform="translate(383.3987731933594,1.8528289794921875)"/>
<path d="M0 0 C0.73863281 0.04382813 1.47726562 0.08765625 2.23828125 0.1328125 C5.98243079 1.26740327 8.53334362 2.6113788 10.6875 5.875 C11.61305578 10.64828933 11.48731867 15.42582403 11.43212891 20.26879883 C11.43698707 21.75408446 11.444428 23.23936356 11.45425415 24.72462463 C11.47305409 28.7540126 11.45423618 32.7824273 11.42758989 36.81173921 C11.40493057 41.0334041 11.41317856 45.2550221 11.41708374 49.47673035 C11.41884934 56.56936503 11.39670043 63.66161731 11.35986328 70.75415039 C11.31757683 78.94251025 11.31049782 87.13030902 11.3229872 95.31875592 C11.33439883 103.20558218 11.32305156 111.09221173 11.30064011 118.97900963 C11.29137517 122.33011213 11.28958869 125.68109379 11.2938118 129.03220558 C11.2975944 132.98456426 11.28124286 136.93635651 11.24969101 140.88858604 C11.24124409 142.33489513 11.23947805 143.7812619 11.24507141 145.22758484 C11.28595799 157.69669922 8.7396312 164.35164487 0.20703125 173.53515625 C-5.6894215 179.01108679 -12.11653002 182.98484477 -20.17597961 183.03562927 C-22.04982834 183.05069771 -22.04982834 183.05069771 -23.96153259 183.06607056 C-25.35366761 183.07210088 -26.74580327 183.07798586 -28.13793945 183.08374023 C-29.5980858 183.0932767 -31.05822986 183.10316777 -32.51837158 183.11338806 C-37.32081412 183.14479461 -42.1232741 183.16504096 -46.92578125 183.18359375 C-48.15075809 183.18853973 -48.15075809 183.18853973 -49.40048194 183.19358563 C-57.10006033 183.22436517 -64.79964257 183.25107682 -72.49926472 183.26800442 C-82.35317521 183.28992112 -92.20654149 183.33191178 -102.06023437 183.40144199 C-108.98598256 183.44865548 -115.91158378 183.47293432 -122.83748788 183.4802013 C-126.97551718 183.48516135 -131.11293335 183.50027445 -135.25078773 183.5399456 C-139.14404375 183.57677975 -143.03633565 183.58523306 -146.92973328 183.57193947 C-148.35801231 183.57199347 -149.78633371 183.58231253 -151.21445274 183.6036911 C-161.96815592 183.75605567 -161.96815592 183.75605567 -165.26106834 181.59794807 C-168.13425332 178.30393152 -169.21334266 174.90623629 -169.625 170.625 C-169.22358268 165.80799219 -168.1112508 163.8083795 -165.3125 159.875 C-161.67924222 157.21217655 -159.13758204 156.49972629 -154.66444397 156.49645996 C-152.97589546 156.48415596 -152.97589546 156.48415596 -151.25323486 156.47160339 C-150.02763855 156.47775162 -148.80204224 156.48389984 -147.53930664 156.49023438 C-145.54676715 156.48198717 -143.55422767 156.47373918 -141.5616883 156.46546173 C-139.42475065 156.45946925 -137.28792981 156.46084309 -135.15098763 156.46430969 C-130.69198266 156.47112865 -126.23323448 156.45523551 -121.77427673 156.43591309 C-112.30786496 156.39807914 -102.84147578 156.38526178 -93.375 156.375 C-83.15796513 156.36392166 -72.94104881 156.34854287 -62.72409528 156.30428743 C-58.29417725 156.28595453 -53.86455355 156.28203037 -49.43460667 156.28922272 C-47.34099642 156.29037955 -45.24753676 156.28473286 -43.15394592 156.27604675 C-40.6050835 156.26551112 -38.05614572 156.2655891 -35.5072937 156.27839661 C-28.15961438 156.22498982 -23.34776656 155.93618065 -17.96765137 150.51013184 C-15.44714635 144.97446408 -15.7756491 139.72631678 -15.83007812 133.71289062 C-15.8278903 132.37200015 -15.82389057 131.0311116 -15.81822205 129.69023132 C-15.80967758 126.81074684 -15.81341127 123.93163569 -15.8266449 121.0521698 C-15.84702729 116.49644838 -15.83698492 111.94110109 -15.8223877 107.38537598 C-15.79566087 97.7152169 -15.80235711 88.04518014 -15.8125 78.375 C-15.82345111 67.93426578 -15.82865916 57.49372509 -15.79520559 47.05302382 C-15.78184736 42.52682135 -15.78776921 38.00118241 -15.80857086 33.47501373 C-15.8175691 30.65689215 -15.81007207 27.83898689 -15.79815865 25.02088356 C-15.79501946 23.09692017 -15.81179479 21.17295636 -15.82920837 19.24906921 C-15.78404399 12.84934648 -15.7249423 8.6908832 -11.3125 3.875 C-7.7296075 0.7263975 -4.75465158 -0.37774434 0 0 Z " fill="#8E899F" transform="translate(537.3125,274.125)"/>
<path d="M0 0 C4.53661676 2.6546686 8.08943146 5.90680681 11.6875 9.6875 C17.12224475 15.25645696 22.89079136 20.17598784 29 25 C29.79792969 25.67675781 30.59585938 26.35351562 31.41796875 27.05078125 C45.27098165 38.68911998 60.54069476 46.75953465 78.94140625 45.27050781 C99.14300924 42.61593285 117.99706035 23.71531654 130.6875 8.8125 C131.27144531 8.14734375 131.85539063 7.4821875 132.45703125 6.796875 C133.63873995 5.4207079 134.76903924 4.00024898 135.875 2.5625 C139.28229555 0.05713562 142.82939358 -0.31803584 147 0 C150.84676353 1.95835234 152.60966175 3.41449262 155 7 C155.45387644 12.62806782 155.27853086 15.28228536 152 20 C150.20073232 22.09359233 148.39138187 24.11927234 146.5 26.125 C145.96592529 26.69412109 145.43185059 27.26324219 144.8815918 27.84960938 C143.78237798 29.01594951 142.68041008 30.17970029 141.57568359 31.34082031 C140.16161508 32.82982088 138.76151592 34.33205843 137.36328125 35.8359375 C121.11920888 52.80141584 99.52250232 68.63797293 75.19116211 69.29296875 C48.55316726 69.53738205 27.31537703 55.01979951 8 38 C7.1234375 37.23558594 6.246875 36.47117187 5.34375 35.68359375 C-13.58868332 18.93797631 -13.58868332 18.93797631 -14.2734375 14.046875 C-14.46154273 9.79280282 -14.43570087 6.90017646 -11.6875 3.5 C-7.91384783 -0.01037411 -5.04170144 -0.49428445 0 0 Z " fill="#160544" transform="translate(207,255)"/>
<path d="M0 0 C4.74432333 5.17562545 5.61871985 9.77288486 5.4140625 16.62890625 C4.74024175 21.65261426 2.13602278 24.28121115 -1.5 27.5625 C-6.04144554 30.70657768 -10.58204449 31.00392335 -15.9375 30.25 C-21.03591001 28.25535889 -24.89194168 25.15293898 -27.31640625 20.20703125 C-28.88655859 15.25957011 -28.51207867 10.8225311 -26.75 6 C-23.92870262 1.71941087 -21.47488355 -1.05667016 -16.75 -3.1875 C-10.63524289 -4.08967728 -5.32731712 -3.17372084 0 0 Z " fill="#160544" transform="translate(334.9375,176.75)"/>
<path d="M0 0 C4.74432333 5.17562545 5.61871985 9.77288486 5.4140625 16.62890625 C4.74024175 21.65261426 2.13602278 24.28121115 -1.5 27.5625 C-6.04144554 30.70657768 -10.58204449 31.00392335 -15.9375 30.25 C-21.03591001 28.25535889 -24.89194168 25.15293898 -27.31640625 20.20703125 C-28.88655859 15.25957011 -28.51207867 10.8225311 -26.75 6 C-23.92870262 1.71941087 -21.47488355 -1.05667016 -16.75 -3.1875 C-10.63524289 -4.08967728 -5.32731712 -3.17372084 0 0 Z " fill="#160544" transform="translate(236.9375,176.75)"/>
</svg>
